<?xml version="1.0" encoding="UTF-8" standalone="no"?>
<!-- Created with Inkscape (http://www.inkscape.org/) -->

<svg
   width="50.000008mm"
   height="58.763504mm"
   viewBox="0 0 50.000008 58.763504"
   version="1.1"
   id="svg5"
   xml:space="preserve"
   sodipodi:docname="unified-plainsvg.svg"
   inkscape:version="1.2.1 (9c6d41e410, 2022-07-14)"
   xmlns:inkscape="http://www.inkscape.org/namespaces/inkscape"
   xmlns:sodipodi="http://sodipodi.sourceforge.net/DTD/sodipodi-0.dtd"
   xmlns="http://www.w3.org/2000/svg"
   xmlns:svg="http://www.w3.org/2000/svg"><sodipodi:namedview
     id="namedview7"
     pagecolor="#ffffff"
     bordercolor="#666666"
     borderopacity="1.0"
     inkscape:showpageshadow="2"
     inkscape:pageopacity="0.0"
     inkscape:pagecheckerboard="0"
     inkscape:deskcolor="#d1d1d1"
     inkscape:document-units="mm"
     showgrid="false"
     inkscape:zoom="6.3043212"
     inkscape:cx="122.45569"
     inkscape:cy="135.30402"
     inkscape:window-width="3840"
     inkscape:window-height="2120"
     inkscape:window-x="1668"
     inkscape:window-y="156"
     inkscape:window-maximized="1"
     inkscape:current-layer="layer1" /><defs
     id="defs2" /><g
     inkscape:label="Layer 1"
     inkscape:groupmode="layer"
     id="layer1"
     transform="translate(-9.5661117,-12.838336)"><path
       style="fill:#000000;stroke-width:0.0250262"
       d="m 37.508611,71.583073 c 0.0061,-0.01034 0.323201,-0.973507 0.704717,-2.140402 0.494483,-1.512401 0.686277,-2.130426 0.667939,-2.152252 -0.01414,-0.01685 -0.836006,-0.616226 -1.826339,-1.33197 l -1.800602,-1.301363 2.26099,-0.0064 2.260985,-0.0064 0.188264,-0.581724 c 0.103547,-0.319949 0.415863,-1.288017 0.694036,-2.151264 0.278174,-0.863248 0.509619,-1.565693 0.514326,-1.560987 0.009,0.009 1.382868,4.2641 1.382868,4.283003 0,0.006 1.019677,0.01383 2.26595,0.01736 l 2.265952,0.0064 -1.776621,1.283769 c -0.977141,0.706073 -1.800286,1.302946 -1.829209,1.326383 l -0.05258,0.04263 0.700674,2.138921 c 0.385368,1.176406 0.697347,2.142244 0.693287,2.146308 -0.004,0.004 -0.826011,-0.590043 -1.826551,-1.320231 -1.110015,-0.810085 -1.830998,-1.320638 -1.849528,-1.309713 -0.01669,0.0098 -0.838397,0.607128 -1.825975,1.3273 -0.987577,0.720167 -1.801907,1.309399 -1.809615,1.309399 -0.0077,0 -0.0091,-0.0085 -0.0032,-0.01877 z m -13.246237,-0.02355 c 3.8e-4,-0.01113 0.314398,-0.976908 0.697816,-2.146159 l 0.697125,-2.125916 -0.05339,-0.04126 c -0.02936,-0.02269 -0.852979,-0.618769 -1.83025,-1.324611 -0.97727,-0.705838 -1.781664,-1.287663 -1.787541,-1.292942 -0.0059,-0.0053 1.012845,-0.0092 2.263828,-0.0088 l 2.274515,7.83e-4 0.689255,-2.140038 c 0.379091,-1.177021 0.694888,-2.139982 0.70177,-2.139911 0.0069,0 0.322494,0.963083 0.70136,2.140037 l 0.688848,2.139912 2.274922,-7.83e-4 c 1.25121,-3.92e-4 2.27012,0.0036 2.264242,0.0087 -0.0059,0.0052 -0.832797,0.60344 -1.837596,1.329411 -1.0048,0.725972 -1.828976,1.321708 -1.831504,1.323859 -0.0024,0.002 0.310576,0.96507 0.695787,2.139823 0.385215,1.174748 0.695889,2.14041 0.690384,2.145911 -0.0055,0.0055 -0.828307,-0.587085 -1.828463,-1.316864 l -1.818463,-1.326865 -1.795383,1.30951 c -1.925118,1.404129 -1.858289,1.356409 -1.857258,1.326237 z m 23.423775,-8.483811 c 0,-0.01109 0.310623,-0.969761 0.69027,-2.130336 0.379647,-1.160579 0.684726,-2.124587 0.677951,-2.142244 -0.0068,-0.01767 -0.828484,-0.622241 -1.826018,-1.343518 l -1.813698,-1.311414 2.267256,-0.0125 2.267255,-0.0125 0.687539,-2.132079 c 0.378146,-1.172644 0.694341,-2.127879 0.702653,-2.122742 0.0083,0.0051 0.323972,0.967331 0.701465,2.138204 l 0.686347,2.128867 2.265743,0.0064 2.265739,0.0064 -1.814395,1.310717 c -0.997919,0.720892 -1.822366,1.317856 -1.832111,1.326582 -0.0098,0.0087 0.297119,0.977738 0.681916,2.153364 0.384796,1.175627 0.695662,2.141473 0.690806,2.146324 -0.0048,0.0048 -0.827612,-0.588753 -1.828365,-1.319118 l -1.819544,-1.327938 -0.117366,0.0855 c -0.06456,0.04702 -0.872759,0.636849 -1.79601,1.31072 -1.842154,1.344568 -1.737433,1.269744 -1.737433,1.241359 z M 14.150736,62.926343 c 0.760156,-2.318024 1.351796,-4.138019 1.351796,-4.158372 0,-0.01438 -0.813662,-0.613831 -1.808138,-1.332115 -0.994477,-0.718283 -1.819401,-1.316974 -1.833165,-1.330418 -0.01629,-0.01591 0.768037,-0.02136 2.247039,-0.01564 l 2.272066,0.0088 0.107618,-0.338084 c 0.589033,-1.850473 1.279052,-3.951753 1.292569,-3.936197 0.0093,0.01066 0.294312,0.880897 0.633452,1.933871 0.339141,1.052977 0.647839,2.010226 0.685996,2.127224 l 0.06938,0.212719 2.264623,-0.0084 c 2.007974,-0.0074 2.260369,-0.0042 2.227084,0.02892 -0.02064,0.02053 -0.837125,0.614204 -1.814395,1.319242 -0.977271,0.705043 -1.785805,1.289964 -1.796743,1.299823 -0.01093,0.0099 0.295265,0.979486 0.680448,2.154724 0.385183,1.175239 0.696307,2.140826 0.691385,2.145748 -0.0049,0.0049 -0.828246,-0.58877 -1.829612,-1.319314 l -1.820664,-1.328256 -0.07712,0.05801 c -0.04241,0.0319 -0.831655,0.608017 -1.753869,1.28025 -0.922213,0.672234 -1.712965,1.24956 -1.757227,1.282954 l -0.08048,0.06072 z M 50.026199,49.948651 c 0.899227,-2.744641 1.363584,-4.172305 1.362691,-4.189558 -7.84e-4,-0.01199 -0.820207,-0.613013 -1.821308,-1.335642 L 47.7474,43.10958 l 2.257271,-0.0064 2.257271,-0.0064 0.051,-0.156281 c 0.02806,-0.08595 0.339357,-1.051367 0.691799,-2.145359 0.352444,-1.093992 0.644576,-1.992848 0.649184,-1.997456 0.0046,-0.0046 0.02586,0.04585 0.04727,0.112116 0.131588,0.407747 1.299835,4.039214 1.32083,4.105778 l 0.02562,0.0812 2.259235,0.0064 2.259238,0.0064 -1.821797,1.313871 c -1.001986,0.722629 -1.822413,1.322127 -1.823173,1.332213 -7.84e-4,0.01007 0.313322,0.978287 0.697961,2.151554 0.384636,1.173268 0.696505,2.136049 0.693041,2.139516 -0.0036,0.0036 -0.809239,-0.579666 -1.79061,-1.295841 -0.981367,-0.716175 -1.803847,-1.314341 -1.82773,-1.329258 -0.03648,-0.02277 -0.331395,0.182911 -1.843048,1.285426 -0.989795,0.7219 -1.813125,1.320665 -1.829623,1.330591 -0.02174,0.01309 -0.02033,-0.01144 0.0051,-0.089 z m -38.195502,0.02339 c 0.06183,-0.161117 1.398783,-4.276008 1.391372,-4.282372 -0.0051,-0.0044 -0.829898,-0.600873 -1.832693,-1.325387 L 9.5661117,43.046994 H 11.83359 c 1.247113,0 2.267478,-0.0059 2.267478,-0.01309 0,-0.01 1.016268,-3.170206 1.330245,-4.136589 0.02824,-0.0869 0.05506,-0.154286 0.05961,-0.149737 0.006,0.006 1.11217,3.421707 1.365959,4.217952 l 0.02589,0.0812 2.256007,0.0064 2.256005,0.0064 -1.813688,1.310787 c -0.997529,0.720936 -1.81853,1.315141 -1.824446,1.320458 -0.0059,0.0053 0.280221,0.896386 0.635858,1.980151 0.787957,2.401209 0.768268,2.338651 0.728496,2.314783 -0.01738,-0.01042 -0.833252,-0.604573 -1.813053,-1.32032 -0.9798,-0.715749 -1.795292,-1.304075 -1.812203,-1.30739 -0.01691,-0.0032 -0.802177,0.557982 -1.745037,1.247334 -2.003283,1.464647 -1.940402,1.419886 -1.920005,1.366735 z m 31.560841,-11.44537 c 0.0084,-0.02582 0.324624,-0.991649 0.702762,-2.146308 0.378135,-1.154661 0.68239,-2.107686 0.676121,-2.117831 -0.0063,-0.01015 -0.827128,-0.608283 -1.824122,-1.3292 l -1.812718,-1.310752 2.258337,-0.0064 2.258335,-0.0064 0.683268,-2.120833 c 0.375799,-1.166461 0.690815,-2.135057 0.700038,-2.15244 0.0092,-0.0174 0.250075,0.692112 0.535228,1.576649 0.285148,0.884537 0.597515,1.853134 0.694153,2.152436 l 0.175701,0.544188 2.258615,0.0064 2.258616,0.0064 -1.820555,1.313871 c -1.001305,0.722629 -1.820987,1.324788 -1.821512,1.338126 -0.0012,0.02743 1.373769,4.24151 1.396442,4.280244 0.0241,0.04116 -0.04887,-0.01112 -1.889517,-1.354501 -1.542676,-1.125893 -1.775885,-1.288024 -1.816339,-1.262758 -0.02555,0.01595 -0.83701,0.606144 -1.803295,1.311559 -0.966279,0.705411 -1.772156,1.291997 -1.790835,1.303526 -0.02543,0.01567 -0.03013,0.0091 -0.01873,-0.02598 z m -24.910894,-0.02429 c 0,-0.0082 0.309698,-0.959552 0.688218,-2.114132 0.37852,-1.154585 0.688219,-2.115599 0.688219,-2.135595 0,-0.01999 -0.813662,-0.624032 -1.808139,-1.342299 -0.994476,-0.718276 -1.8194,-1.316962 -1.833165,-1.330419 -0.0163,-0.01595 0.767536,-0.02151 2.249386,-0.01595 l 2.274412,0.0085 0.691186,-2.143835 c 0.380152,-1.179106 0.696817,-2.138611 0.703699,-2.132228 0.0069,0.0064 0.322695,0.971109 0.701807,2.143835 l 0.689294,2.132228 2.257536,-0.0089 c 1.24575,-0.0049 2.256949,7.84e-4 2.256232,0.0125 -9.5e-4,0.01567 -3.486818,2.549194 -3.629085,2.637603 -0.01189,0.0074 0.293072,0.9752 0.677678,2.150701 0.384605,1.175496 0.694904,2.141648 0.689554,2.147001 -0.01036,0.01034 -0.09449,-0.05036 -2.234688,-1.612848 -0.760148,-0.554969 -1.394621,-1.009024 -1.409941,-1.009024 -0.01532,0 -0.83777,0.591242 -1.827667,1.313875 -0.989899,0.722629 -1.805377,1.31387 -1.812176,1.31387 -0.0068,0 -0.01236,-0.0067 -0.01236,-0.01489 z M 30.943662,33.99504 c 0,-0.01916 0.971994,-3.005104 1.286441,-3.951924 l 0.108985,-0.328163 -1.831045,-1.323565 -1.831049,-1.323561 2.264462,-0.0125 2.264458,-0.0125 0.68802,-2.133478 c 0.378413,-1.173412 0.694334,-2.13333 0.702041,-2.133145 0.0077,1.76e-4 0.323606,0.963009 0.701987,2.139606 l 0.687969,2.139267 2.263377,0.0064 2.263376,0.0064 -1.832365,1.324657 c -1.169878,0.845729 -1.827844,1.336438 -1.819858,1.357245 0.05773,0.150443 1.390747,4.24626 1.384133,4.252874 -0.0048,0.0048 -0.827264,-0.588723 -1.827804,-1.318832 l -1.819165,-1.327471 -0.08141,0.05762 c -0.04478,0.0317 -0.813425,0.591872 -1.708111,1.244854 -2.013474,1.469529 -1.864446,1.362723 -1.864446,1.336272 z M 14.89408,18.569779 c -0.592146,-0.06441 -1.049931,-0.316774 -1.234183,-0.68038 -0.153518,-0.302952 -0.144377,-0.141634 -0.153137,-2.702737 l -0.008,-2.346201 h 0.538914 0.538915 l 6.27e-4,2.196044 c 3.88e-4,1.393363 0.0099,2.236294 0.026,2.30616 0.03645,0.158116 0.105013,0.239978 0.268053,0.320041 l 0.143295,0.07036 h 2.07717 2.07717 l 0.139909,-0.06561 c 0.158707,-0.07443 0.234681,-0.165333 0.271441,-0.324797 0.01611,-0.06987 0.02561,-0.912798 0.026,-2.30616 l 6.27e-4,-2.196044 h 0.539015 0.539015 l -0.0084,2.38374 c -0.0078,2.20297 -0.01178,2.395045 -0.05314,2.532817 -0.06487,0.216059 -0.129835,0.330553 -0.263284,0.464001 -0.134193,0.134193 -0.359273,0.2493 -0.615586,0.314813 -0.161079,0.04117 -0.355506,0.0452 -2.415023,0.05 -1.231912,0.0029 -2.327824,-0.0044 -2.435361,-0.01604 z m 6.839962,-2.851311 v -2.878007 h 0.462384 0.462384 l 2.852269,2.127223 c 1.568749,1.169972 2.858492,2.127221 2.866095,2.127221 0.0076,0 0.01382,-0.957249 0.01382,-2.127221 v -2.127223 h 0.475497 0.475497 v 2.878007 2.878006 h -0.264121 -0.264121 l -2.08208,-1.518943 c -1.145144,-0.835419 -2.52692,-1.843683 -3.070613,-2.240587 l -0.988533,-0.721645 -0.0064,2.240588 -0.0064,2.240587 h -0.46285 -0.462849 z m 8.709099,0 v -2.878007 h 0.53806 0.538064 v 2.878007 2.878006 h -0.538064 -0.53806 z m 2.193957,2.861322 c -0.0092,-0.0092 -0.01669,-1.304279 -0.01669,-2.878006 v -2.861323 h 2.965601 2.965597 v 0.425445 0.425444 h -2.415022 -2.415026 v 0.838376 0.838376 h 2.252353 2.252354 v 0.425444 0.425445 h -2.252354 -2.252353 v 1.188741 1.188742 h -0.53389 c -0.293641,0 -0.541399,-0.0075 -0.550576,-0.01668 z m 6.540168,-2.861322 v -2.878007 h 0.53806 0.538063 v 2.878007 2.878006 h -0.538063 -0.53806 z m 2.193956,2.861322 c -0.0092,-0.0092 -0.01669,-1.304279 -0.01669,-2.878006 v -2.861323 h 2.965602 2.965595 v 0.425445 0.425444 h -2.415023 -2.415022 v 0.713245 0.713246 h 2.289892 2.289891 v 0.425443 0.425445 h -2.289891 -2.289892 v 0.888428 0.888428 h 2.415022 2.415023 v 0.425445 0.425444 h -2.94891 c -1.621908,0 -2.956425,-0.0075 -2.965602,-0.01668 z m 6.84048,-2.862386 v -2.879068 l 2.934312,0.0092 c 2.618521,0.0082 2.956429,0.01372 3.139778,0.05101 0.401662,0.08169 0.759933,0.247677 0.937806,0.434471 0.116924,0.122791 0.238444,0.35222 0.299365,0.565195 l 0.05894,0.206046 v 1.6267 c 0,1.480415 -0.004,1.641328 -0.04444,1.789369 -0.176979,0.64787 -0.655473,0.964091 -1.586567,1.048507 -0.199639,0.0181 -1.241108,0.02762 -3.02191,0.02762 h -2.717282 z m 5.830474,1.971515 c 0.271975,-0.08313 0.399596,-0.222404 0.450693,-0.491841 0.03955,-0.208505 0.03264,-2.778004 -0.008,-2.971804 -0.05293,-0.252506 -0.178523,-0.391215 -0.433836,-0.479131 -0.108707,-0.03743 -0.354953,-0.04238 -2.442071,-0.04907 l -2.321175,-0.0074 v 2.028959 2.028959 l 2.308663,-0.0084 c 2.072029,-0.0075 2.322706,-0.01266 2.445688,-0.05026 z"
       id="path302" /></g></svg>
